<?xml version="1.0" encoding="UTF-8" standalone="no"?>
<!-- Created with Inkscape (http://www.inkscape.org/) -->

<svg
   version="1.1"
   id="svg3979"
   width="371.69916"
   height="679.64844"
   viewBox="0 0 371.69916 679.64844"
   xmlns="http://www.w3.org/2000/svg"
   xmlns:svg="http://www.w3.org/2000/svg">
  <defs
     id="defs3983" />
  <path
     style="display:inline;fill:none;fill-opacity:1;stroke:#000000;stroke-width:2;stroke-linecap:round;stroke-linejoin:bevel;stroke-dasharray:none;stroke-opacity:1;paint-order:stroke fill markers"
     d="m 181.40325,676.57004 c -18.32592,-3.9073 -47.82581,-14.7685 -63.5,-23.3793 -18.070349,-9.9272 -35.058759,-24.0751 -47.653279,-39.68573 -11.60249,-14.38099 -24.03057,-43.0237 -28.01954,-64.57601 -2.13138,-11.5158 -2.40345,-49.65295 -0.48792,-68.39408 4.38395,-42.89161 26.04207,-97.37239 61.677009,-155.14793 l 6.19374,-10.04202 -9.59058,3.34147 c -13.112859,4.56869 -29.674179,8.92768 -47.996859,12.63291 l -15.37744,3.10965 -4.77453,11 -4.77454,11 -12.34803,5.21937 c -6.7914204,2.87066 -12.6855304,5.23316 -13.0980304,5.25 -2.06625997,0.0844 0.41977,-5.4128 13.7231204,-30.34494 12.23916,-22.93771 19.36787,-37.55368 21.76487,-44.62443 0.38939,-1.14861 6.92181,-2.41179 27.88526,-5.39218 48.835779,-6.94302 66.048229,-11.43792 117.943729,-30.8001 l 16.90627,-6.30772 -7.73663,-1.10802 c -4.25514,-0.60941 -13.84912,-1.89935 -21.31995,-2.86654 -9.5976,-1.24251 -13.58334,-2.14098 -13.58334,-3.06195 0,-1.64917 1.49517,-1.91023 28.16667,-4.91795 32.04836,-3.61406 46.95956,-4.72873 65.5,-4.89637 l 16.5,-0.14918 9.75,5.28501 c 5.3625,2.90675 9.75,4.92969 9.75,4.49542 0,-0.43427 -7.42228,-34.31252 -16.49394,-75.285 -9.07167,-40.97249 -16.49667,-75.423508 -16.5,-76.557828 -0.003,-1.13433 1.35797,-6.08433 3.02511,-11 3.12578,-9.21655 5.63112,-21.49066 10.90851,-53.44273 1.6801,-10.17217 3.30137,-19.9573597 3.60283,-21.7448597 0.8551,-5.07021998 3.10806,-3.96380998 4.96989,2.44066 4.9583,17.0559397 14.9087,53.6769197 20.05497,73.8093397 l 5.87929,22.999998 11.92617,16 c 8.78595,11.78711 16.77763,20.90558 30.35132,34.63072 l 18.42514,18.63072 2.41904,9.36928 c 5.61668,21.75423 5.52705,44.11611 -0.2345,58.50822 -3.52529,8.806 -12.86055,18.86048 -21.82833,23.51006 -5.21511,2.7039 -6.33647,3.70846 -5.96166,5.34066 0.74739,3.25466 3.20226,20.90773 5.07719,36.51034 2.11508,17.60101 2.43015,64.45105 0.55146,82 -4.00903,37.44856 -11.28434,65.96599 -23.12133,90.62996 -7.6946,16.03275 -15.62719,27.77887 -26.33114,38.98968 l -8.77998,9.19572 -16.47286,40.29516 c -9.06008,22.16234 -16.80909,40.60421 -17.22002,40.98193 -0.41094,0.37771 -12.89716,4.13323 -27.74716,8.34559 -14.85,4.21235 -33.89901,9.7492 -42.33113,12.304 l -15.33114,4.6452 6.57508,1.8012 c 39.61254,10.8513 84.73055,3.468 123.58078,-20.22335 24.03304,-14.65565 45.68619,-36.42613 56.16416,-56.46851 3.53083,-6.75381 10.78111,-28.91682 14.76791,-45.14328 1.06124,-4.31931 1.969,-7.1783 2.01725,-6.3533 0.078,1.33333 0.20602,1.33333 1.15243,0 0.76012,-1.07086 0.88842,3.63588 0.44847,16.45197 -0.52491,15.29121 -1.05291,19.66355 -3.56238,29.5 -5.68579,22.28676 -12.74653,37.46218 -25.32936,54.43963 -8.64609,11.66578 -33.43571,35.92794 -43.68013,42.75074 -26.13957,17.4089 -58.70206,27.653 -90.47194,28.462 -12.89945,0.3285 -16.5404,0.054 -26,-1.9633 z m 52.81522,-3.76881 c 24.4729,-5.01099 42.67146,-12.3313 61.01515,-24.54319 7.38063,-4.9135 13.8495,-10.60811 25.29411,-22.26661 8.45751,-8.61559 17.48138,-18.55634 20.05305,-22.09056 15.25056,-20.95875 25.75023,-49.08553 26.86697,-71.97187 l 0.51235,-10.5 -4.85144,15.5 c -5.09747,16.28606 -8.85107,24.62581 -15.48594,34.4067 -9.96108,14.68426 -27.167,31 -45.21947,42.87995 -41.25248,27.14739 -90.74197,35.46789 -134.25,22.57109 -7.88651,-2.3378 -9.12751,-4.1133 -4,-5.7228 19.86552,-6.2359 33.52142,-10.30127 57.03398,-16.97887 15.28119,-4.33988 27.94074,-8.0629 28.13235,-8.27338 0.19161,-0.21048 7.67445,-18.38269 16.62853,-40.38269 l 16.28016,-40 8.70923,-9.15368 c 28.7206,-30.18628 44.93042,-74.50197 50.05571,-136.84632 0.69638,-8.47081 0.94584,-24.26849 0.63164,-40 -0.43308,-21.6833 -1.03222,-29.6526 -3.60869,-48 -1.69916,-12.1 -3.09361,-22.9 -3.09877,-24 -0.007,-1.42069 1.63331,-2.85839 5.66181,-4.96347 12.61477,-6.59182 21.63021,-18.22362 24.91036,-32.13956 2.74413,-11.64193 1.24206,-33.46578 -3.52075,-51.15351 -0.93964,-3.48955 -4.35891,-7.51815 -19.92682,-23.47791 -13.17684,-13.50849 -22.25043,-23.90295 -30.36407,-34.78426 l -11.57151,-15.5187 -7.66217,-29.481308 c -8.60944,-33.12606 -17.37313,-64.787 -18.50446,-66.8517997 -0.4398,-0.80268 -1.04872,1.2689397 -1.46967,4.9999997 -1.75523,15.55724 -9.84071,56.92549 -12.93917,66.20142 l -3.3237,9.95025 16.848,75.962268 c 9.26641,41.77924 16.84801,76.59098 16.84801,77.35943 0,2.65353 -5.44628,1.39283 -14,-3.24071 -8.41323,-4.55744 -8.61739,-4.60953 -20,-5.10293 -12.63201,-0.54755 -34.04013,0.77071 -61,3.75622 -29.3813,3.25365 -28.99449,2.96834 -8,5.90066 13.96111,1.94996 18.5,2.92743 18.5,3.98406 0,1.67887 -18.2889,8.85214 -51.20922,20.08528 -33.63431,11.47677 -47.22053,14.54705 -90.790779,20.51735 -25.22428,3.45641 -23.2597,2.85092 -25.21329,7.77066 -2.59261,6.52893 -14.09569,29.43526 -24.17384,48.13784 -5.0120804,9.3012 -9.1128704,17.0159 -9.1128704,17.14378 0,0.12788 4.487,-1.6322 9.9711204,-3.91128 l 9.97112,-4.14378 4.64484,-10.72379 c 2.55466,-5.89809 5.15516,-11.12883 5.77888,-11.62386 0.62372,-0.49503 3.38404,-1.20861 6.13404,-1.58572 11.69147,-1.60327 38.18274,-8.12133 53.44187,-13.14912 17.025019,-5.60966 19.058129,-6.08375 19.058129,-4.4441 0,0.53538 -2.85532,5.59788 -6.34515,11.25 -30.494589,49.38893 -52.619469,99.59521 -60.067729,136.30705 -4.65847,22.96119 -6.17987,64.95837 -3.06002,84.46954 3.11925,19.50742 12.55046,43.87919 23.13704,59.78985 8.01322,12.04312 25.27727,29.12199 37.901809,37.49509 22.66456,15.0323 62.16156,30.3226 86.93405,33.6545 10.62989,1.4297 25.00138,0.3755 41.81522,-3.06721 z m -93.95664,-47.2772 C 129.54122,619.76761 121.90975,614.0464 113.57398,605.51651 89.234901,580.61062 74.567361,540.18985 73.172801,494.179 c -0.66381,-21.90089 -0.14501,-22.55024 7.23045,-9.04997 20.140539,36.86589 45.187539,57.25028 80.922459,65.85839 24.40327,5.87845 59.15739,3.95155 82.75205,-4.58811 10.23245,-3.70345 11.82549,-4.00186 11.82549,-2.2152 0,2.29946 -9.12199,15.73475 -16.58196,24.42268 -14.82531,17.26566 -14.71909,17.18532 -52.76482,39.91048 -19.71572,11.77645 -36.36572,21.40417 -37,21.39506 -0.63427,-0.01 -4.81686,-1.9839 -9.29464,-4.3883 z m 45.31524,-19.76859 35.53872,-21.17355 9.92369,-11.07645 c 8.47587,-9.46043 19.86377,-24.30299 19.86377,-25.88967 0,-0.2675 -3.0375,0.56589 -6.75,1.85198 -15.39262,5.33233 -26.15394,6.84069 -49.25,6.90312 -17.1803,0.0464 -23.20779,-0.30765 -30,-1.76239 -24.1055,-5.16284 -44.83247,-15.92718 -60.79827,-31.57496 -8.945999,-8.7678 -14.554249,-16.24481 -22.560869,-30.0785 l -6.64086,-11.47397 v 4.80188 c 0,9.62488 2.19668,29.44426 4.61584,41.64606 4.49138,22.65375 12.56275,43.32638 23.231019,59.5 5.33765,8.09214 18.3259,21.98834 25.41669,27.19346 5.32196,3.90668 19.6759,12.30658 21.02979,12.30658 0.46297,0 16.83419,-9.52814 36.38048,-21.17359 z m -13.17382,-98.36892 c -24.80337,-4.56071 -45.30847,-15.22346 -57.25677,-29.77374 -13.21735,-16.0957 -18.747309,-39.11676 -14.81728,-61.68378 3.23799,-18.59317 13.84077,-45.18013 25.21018,-63.21566 2.67513,-4.24362 12.06387,-16.41408 20.86387,-27.04548 15.38166,-18.58279 16.8706,-20.05043 38.52742,-37.97608 l 22.52742,-18.64627 -0.39084,-10.55826 c -0.45381,-12.2594 -1.90067,-11.2737 13.336,-9.0854 8.30153,1.19227 72.10449,18.92861 75.38472,20.9559 1.86298,1.15139 5.62583,35.5783 7.19625,65.8396 1.30059,25.06199 0.0783,54.03095 -3.0442,72.15064 -1.59452,9.25284 -2.80359,12.8006 -7.92352,23.25 -3.32303,6.78206 -6.62644,12.33101 -7.34091,12.33101 -0.74223,0 -1.83304,-2.25035 -2.54487,-5.25 -3.38121,-14.24868 -13.12291,-27.56974 -27.01931,-36.94693 -8.25081,-5.56759 -12.99186,-7.80307 -16.54891,-7.80307 -4.29565,0 -22.15264,20.8957 -30.27289,35.4244 -2.66357,4.76565 -2.67514,4.87818 -3.12964,30.42947 l -0.45618,25.64613 7.59973,7.47497 c 4.17985,4.11123 7.59973,7.98992 7.59973,8.61929 0,0.62937 -2.8125,2.40216 -6.25,3.93956 -5.6791,2.53991 -7.48315,2.82262 -19.75,3.09498 -8.83224,0.1961 -16.26608,-0.20889 -21.5,-1.17128 z m 37.71298,-3.54125 c 2.90786,-1.14604 5.48728,-2.28382 5.73205,-2.52837 0.24477,-0.24455 -2.52266,-3.46938 -6.14984,-7.16628 -5.4589,-5.56382 -6.67084,-7.41063 -7.03588,-10.72163 -0.24256,-2.2 -0.0988,-14.89862 0.31953,-28.21916 l 0.76054,-24.21916 3.57065,-5.78084 c 5.84146,-9.45726 19.80431,-27.35912 23.93329,-30.68503 6.48821,-5.22628 12.26881,-4.07325 26.29872,5.24568 12.35367,8.20553 19.88725,17.55242 24.92575,30.9253 l 3.11467,8.26678 4.57213,-9.76678 c 2.51468,-5.37174 5.08815,-11.71525 5.71883,-14.09669 4.08342,-15.4189 6.10288,-57.68421 4.14114,-86.6701 -1.12946,-16.68851 -4.73527,-51.52897 -5.64262,-54.52078 -0.55407,-1.82694 -63.01628,-20.29355 -74.16349,-21.92604 -11.87842,-1.73955 -10.9276,-2.53732 -10.86397,9.11519 l 0.0555,10.16837 -22.34439,18.48537 c -21.31819,17.63641 -23.06339,19.3525 -38,37.36614 -18.32836,22.10415 -21.11359,26.13916 -29.55142,42.81175 -7.26062,14.34651 -10.42296,22.41077 -14.31324,36.5 -2.40157,8.69769 -2.7631,11.82323 -2.77605,24 -0.0126,11.87995 0.33819,15.13574 2.31669,21.5 7.94344,25.55184 28.45929,43.03584 59.66843,50.85058 11.34555,2.84091 11.53718,2.86253 26.71298,3.01324 11.74674,0.11666 14.47106,-0.1626 19,-1.94754 z M 329.42247,237.67899 c -1.09736,-3.28145 -9.52495,-47.59836 -9.52227,-50.07332 0.002,-1.84474 0.46445,-2.71126 1.33425,-2.5 0.73216,0.17782 6.33662,5.89056 12.45436,12.69497 10.02903,11.15472 11.2339,12.90512 12.24907,17.79514 1.51821,7.31322 0.45235,12.70898 -3.37057,17.06304 -4.47287,5.09433 -12.14074,8.02277 -13.14484,5.02017 z m 7.23992,-3.74459 c 6.49871,-3.96232 8.84715,-11.78965 5.93442,-19.77936 -1.10507,-3.03125 -18.5498,-23.70313 -19.33779,-22.91515 -0.29037,0.29038 6.3426,34.83893 8.14789,42.43911 0.65295,2.7489 1.12795,2.77199 5.25548,0.2554 z m -24.52303,320.73119 c -7.27986,-7.29487 -13.23611,-13.62896 -13.23611,-14.07574 0,-0.44678 6.41165,-9.11991 14.24811,-19.27363 9.6673,-12.52594 14.78112,-18.36901 15.90597,-18.17426 2.0989,0.36339 28.08706,25.5679 27.66164,26.82752 -0.7543,2.23334 -29.18669,37.95952 -30.20978,37.95952 -0.62355,0 -7.08998,-5.96853 -14.36983,-13.26341 z m 27.68412,-7.10538 c 6.72854,-8.72783 12.42962,-16.37933 12.66907,-17.00333 0.23945,-0.624 -4.92188,-6.47784 -11.46964,-13.00853 l -11.905,-11.87398 -6.63806,8.47327 c -3.65093,4.66029 -9.74062,12.48009 -13.53263,17.37731 l -6.89457,8.90405 12.14282,12.23248 c 6.67855,6.72787 12.4244,11.90287 12.76856,11.5 0.34416,-0.40286 6.13091,-7.87343 12.85945,-16.60127 z"
     id="path4025-3" />
</svg>
